# xmcd
#
# Track frame offsets: 
#        150
#        16257
#        29301
#        43814
#        59594
#        79301
#        96852
#        112743
#        127123
#        147613
#        166621
#        187996
#
# Disc length: 2872 seconds
#
# Revision: 1
# Processed by: cddbd v1.5.2PL0 Copyright (c) Steve Scherf et al.
# Submitted via: ExactAudioCopy v0.99pb4
#
DISCID=9f0b360c
DTITLE=Maryla Rodowicz - Jest Cudnie 
DYEAR=2008
DGENRE=Ballad
TTITLE0=Jest Cudnie
TTITLE1=Nie Liczy Sie Nic
TTITLE2=Na Odleglosc
TTITLE3=Do Raju Furtki Trzy
TTITLE4=Hej Chlopcze
TTITLE5=Nocny Sufit
TTITLE6=Pol Oddechu
TTITLE7=Panie Nasz, Panie Ich
TTITLE8=Piekny Dzien
TTITLE9=Zielona Pani Ziemio
TTITLE10=Kiedy Sie Dziwic Przestane
TTITLE11=Za Pierwsza Chmura
EXTD=
EXTT0=
EXTT1=
EXTT2=
EXTT3=
EXTT4=
EXTT5=
EXTT6=
EXTT7=
EXTT8=
EXTT9=
EXTT10=
EXTT11=
PLAYORDER=
